<svg xmlns="http://www.w3.org/2000/svg" width="494.975" height="121.611"><g fill="#FFF"><path d="M485.431 29.12a2.805 2.805 0 00-2.801-2.802h-46.115a2.807 2.807 0 00-2.799 2.802v3.945c0 1.538 1.258 2.869 2.799 2.869h29c1.93 0 1.836.852 1.836 3.117v.482c0 2.252.107 2.733-1.82 2.733H406.5a2.791 2.791 0 01-2.784-2.797v-17.07a2.788 2.788 0 012.784-2.797h76.131a2.805 2.805 0 002.801-2.802v-6.291a2.805 2.805 0 00-2.801-2.802h-93.68a2.807 2.807 0 00-2.799 2.802v41.635a2.81 2.81 0 002.799 2.802h93.679a2.807 2.807 0 002.801-2.802V28.633M334.676 40.625c-1.299.824-2.229 1.644-3.769 1.644h-11.883c-1.539 0-2.469-.817-3.771-1.644l-22.888-14.479c-1.305-.826-2.378-.239-2.378 1.302v24.695a2.816 2.816 0 01-2.805 2.802H275.22a2.812 2.812 0 01-2.801-2.802V10.508a2.806 2.806 0 012.801-2.799h12.805c1.54 0 2.468.674 3.769 1.498l31.209 20.216c1.302.828 2.592.815 3.885-.021l31.22-20.195c1.302-.823 2.229-1.498 3.766-1.498h12.802a2.806 2.806 0 012.805 2.799v41.635a2.812 2.812 0 01-2.805 2.802h-11.958a2.814 2.814 0 01-2.803-2.802V27.448c0-1.542-1.075-2.128-2.375-1.302l-22.781 14.427-.083.052zM168.873 54.945h-15.458c-1.158 0-1.656-1.098-1.115-2.114l33.408-43.255c.786-1.021 1.936-1.867 3.094-1.867h71.814c1.93 0 3.128 1.594 3.128 3.523v40.909a2.813 2.813 0 01-2.803 2.804H248.98a2.812 2.812 0 01-2.802-2.802v-5.942c-.008-1.664-.148-2.314-1.832-2.314h-62.871c-1.157 0-1.986.828-2.798 1.833l-.194.231-4.786 6.2c-1.195 1.545-2.876 2.794-4.422 2.794h-.402zm31.01-35.315c-.771 0-1.486.568-2.019 1.255l-7.376 9.547c-.534.69-.172 1.255.605 1.255h53.252c1.684 0 1.824-.646 1.832-2.312v-6.628c0-2.263.1-3.117-1.832-3.117h-44.462zM138.887 54.945c1.546 0 3.224-1.247 4.417-2.794l32.158-41.638c1.194-1.547.626-2.808-.921-2.808h-6.42c-1.158 0-2.307.849-3.094 1.873L131.62 52.831c-.542 1.017-.043 2.114 1.115 2.114h6.152zM119.888 54.945c1.547 0 3.224-1.247 4.419-2.794l32.158-41.638c1.194-1.547.626-2.808-.92-2.808h-9.128c-1.157 0-2.307.849-3.094 1.873L109.915 52.83c-.542 1.017-.043 2.114 1.115 2.114h8.858zM86.655 54.945c-1.157 0-1.657-1.098-1.112-2.114l33.405-43.252c.787-1.024 1.937-1.873 3.094-1.873h13.339c1.546 0 2.115 1.26.919 2.808l-32.156 41.638c-1.193 1.547-2.873 2.794-4.419 2.794h-13.07zM58.659 54.945c-1.158 0-1.656-1.098-1.112-2.114L90.952 9.579c.787-1.024 1.936-1.873 3.094-1.873h17.876c1.547 0 2.115 1.26.923 2.808L80.688 52.151c-1.194 1.547-2.875 2.794-4.421 2.794H58.659zM10.545 54.945c-1.159 0-1.657-1.098-1.114-2.114L42.839 9.579c.787-1.024 1.937-1.873 3.092-1.873h39.188c1.547 0 2.115 1.26.919 2.808L53.881 52.151c-1.191 1.547-2.872 2.794-4.418 2.794H10.545z"/></g><g fill="#FFF"><path d="M12.133 92.027h3.752c2.933 0 5.014.205 6.242.614 1.339.442 2.379 1.295 3.121 2.557.598 1.019.896 2.219.896 3.603 0 1.849-.515 3.343-1.544 4.482-1.029 1.151-2.507 1.82-4.433 2.009-.963.1-2.241.149-3.835.149h-1.66v9.247h-2.54V92.027zm2.54 11.206h1.61c1.937 0 3.342-.105 4.217-.315 1.97-.454 2.955-1.82 2.955-4.101 0-1.328-.354-2.385-1.062-3.171-.62-.687-1.555-1.106-2.806-1.262-.786-.1-1.981-.149-3.586-.149h-1.328v8.998zM29.488 98.568h2.258c.21.819.315 1.638.315 2.457 0 .21-.017.548-.05 1.013 1.096-2.612 2.484-3.918 4.167-3.918.608 0 1.262.172 1.959.515v2.374c-.908-.421-1.633-.631-2.175-.631-1.317 0-2.352.83-3.104 2.49-.465 1.052-.697 2.584-.697 4.599v7.222h-2.407V104.13a229.77 229.77 0 00-.033-3.32 19.91 19.91 0 00-.233-2.242zM42.431 91.711c.442 0 .819.133 1.129.398.376.332.564.786.564 1.361 0 .465-.144.853-.432 1.162-.332.365-.764.548-1.295.548-.509 0-.924-.16-1.245-.481-.332-.31-.498-.714-.498-1.212 0-.542.177-.979.531-1.312a1.804 1.804 0 011.246-.464zm-1.295 6.857h2.507v16.12h-2.507v-16.12zM46.692 98.568h2.49l4.499 13.53 4.499-13.53h2.457l-5.694 16.319h-2.54l-5.711-16.319zM65.403 102.801h-2.374c.155-1.372.642-2.44 1.461-3.204 1.062-.985 2.59-1.478 4.582-1.478 1.693 0 3.038.388 4.034 1.162.797.62 1.262 1.588 1.395 2.905.055.521.083 1.262.083 2.225v6.043c-.011 1.97.138 3.381.448 4.233h-2.274a11.096 11.096 0 01-.349-2.175c-.941 1.737-2.518 2.606-4.731 2.606-1.439 0-2.618-.359-3.536-1.079-1.107-.853-1.66-2.042-1.66-3.569 0-2.302 1.25-3.918 3.752-4.848 1.383-.521 3.392-.996 6.026-1.428v-.681c0-1.118-.183-1.903-.548-2.357-.542-.675-1.45-1.013-2.723-1.013-2.059.002-3.254.888-3.586 2.658zm6.856 3.155c-2.335.421-4.029.874-5.08 1.361-1.494.697-2.241 1.688-2.241 2.972 0 .841.299 1.533.896 2.075.564.498 1.3.747 2.208.747 1.616 0 2.8-.642 3.553-1.926.442-.741.664-1.948.664-3.619v-1.61zM82.578 98.568h3.818v1.926h-3.852l-.149 8.185a155.18 155.18 0 00-.033 1.727c0 1.029.122 1.693.365 1.992.288.365.752.548 1.395.548.786 0 1.583-.188 2.391-.564v2.108c-1.019.354-1.976.531-2.872.531-1.627 0-2.729-.487-3.304-1.461-.288-.487-.432-1.251-.432-2.291 0-.376.027-1.262.083-2.656l.199-8.118h-2.424v-1.926h2.474l.1-4.648h2.324l-.083 4.647zM102.225 107.035H91.218c.055 1.737.382 3.094.979 4.067.819 1.317 2.042 1.976 3.669 1.976 1.217 0 2.186-.382 2.905-1.146.266-.288.548-.725.847-1.312l2.225.266c-.985 2.822-2.983 4.233-5.993 4.233-1.959 0-3.581-.642-4.864-1.926-1.472-1.494-2.208-3.619-2.208-6.375 0-3.044.819-5.368 2.457-6.973 1.184-1.162 2.673-1.743 4.466-1.743 2.235 0 3.957.936 5.163 2.806.907 1.428 1.361 3.265 1.361 5.512v.615zm-2.474-1.876c-.1-1.185-.354-2.164-.764-2.938-.73-1.405-1.854-2.108-3.37-2.108-1.472 0-2.606.691-3.403 2.075-.443.753-.753 1.743-.93 2.972h8.467zM115.87 92.027h2.623v20.453h9.695v2.208H115.87V92.027zM137.567 98.12c1.826 0 3.387.67 4.682 2.009 1.516 1.583 2.274 3.746 2.274 6.491 0 2.712-.758 4.87-2.274 6.475-1.273 1.339-2.861 2.009-4.765 2.009-1.904 0-3.492-.67-4.765-2.009-1.517-1.604-2.274-3.758-2.274-6.458 0-2.723.758-4.892 2.274-6.508 1.273-1.339 2.889-2.009 4.848-2.009zm-.149 2.042c-1.273 0-2.302.525-3.088 1.577-.952 1.251-1.428 2.878-1.428 4.881 0 1.992.476 3.613 1.428 4.864.786 1.052 1.837 1.577 3.154 1.577s2.368-.525 3.154-1.577c.952-1.262 1.428-2.878 1.428-4.848 0-2.036-.476-3.669-1.428-4.897-.796-1.052-1.87-1.577-3.22-1.577zM148.363 98.568h2.357v9.861c0 1.604.188 2.689.564 3.254.564.863 1.483 1.295 2.756 1.295 1.428 0 2.512-.604 3.254-1.81.465-.753.697-1.903.697-3.453v-9.147h2.374v11.223c0 1.372.005 2.274.017 2.706.033.797.155 1.527.365 2.191h-2.341c-.21-.642-.321-1.361-.332-2.158-.388.72-.808 1.262-1.262 1.627-.797.631-1.81.946-3.038.946-1.306 0-2.424-.321-3.354-.963-1.041-.73-1.677-1.766-1.909-3.104-.1-.575-.149-1.444-.149-2.606v-9.862zM164.907 98.568h2.258c.221.62.326 1.4.315 2.341 1.096-1.859 2.739-2.789 4.931-2.789 1.438 0 2.611.382 3.52 1.146.874.741 1.383 1.776 1.527 3.104.055.531.083 1.55.083 3.055v9.264h-2.374v-9.114c0-1.87-.139-3.115-.415-3.735-.498-1.062-1.438-1.594-2.822-1.594-1.539 0-2.712.637-3.52 1.909-.521.83-.78 2.009-.78 3.536v8.998h-2.357v-10.625c0-2.147-.028-3.476-.083-3.984-.057-.444-.15-.948-.283-1.512zM195.317 98.568v1.81l-3.304-.066c.93.863 1.395 2.092 1.395 3.686 0 1.616-.521 2.828-1.561 3.636-.687.531-1.92.99-3.702 1.378-1.229.266-2.053.492-2.474.681-.631.299-.946.664-.946 1.096 0 .276.155.492.465.647.255.122 1.179.26 2.772.415 1.627.166 2.729.315 3.304.448 2.612.598 3.918 2.036 3.918 4.316 0 1.66-.73 2.938-2.191 3.835-1.284.774-2.988 1.162-5.113 1.162-2.324 0-4.161-.476-5.512-1.428-1.162-.819-1.743-1.898-1.743-3.237 0-1.251.471-2.235 1.411-2.955.498-.376 1.162-.708 1.992-.996-1.162-.454-1.743-1.085-1.743-1.893 0-.708.398-1.306 1.195-1.793.442-.266 1.007-.531 1.693-.797-2.136-.853-3.204-2.396-3.204-4.632 0-1.826.647-3.254 1.942-4.283 1.04-.819 2.357-1.229 3.951-1.229a9.47 9.47 0 012.54.365l4.915-.166zm-7.687 15.473c-1.351 0-2.451.205-3.304.614-1.019.487-1.527 1.206-1.527 2.158 0 .874.465 1.555 1.395 2.042.985.521 2.225.78 3.719.78 1.804 0 3.148-.343 4.034-1.029.608-.476.913-1.073.913-1.793 0-1.849-1.743-2.772-5.23-2.772zm.117-13.763c-.963 0-1.771.305-2.424.913-.708.664-1.062 1.538-1.062 2.623 0 .996.31 1.793.93 2.391.642.62 1.483.93 2.523.93 1.029 0 1.859-.293 2.49-.88.631-.598.946-1.405.946-2.424 0-.963-.276-1.776-.83-2.44-.631-.742-1.488-1.113-2.573-1.113zM210.668 107.035h-11.007c.056 1.737.382 3.094.979 4.067.819 1.317 2.042 1.976 3.669 1.976 1.218 0 2.186-.382 2.905-1.146.266-.288.548-.725.847-1.312l2.225.266c-.985 2.822-2.982 4.233-5.993 4.233-1.959 0-3.58-.642-4.864-1.926-1.472-1.494-2.208-3.619-2.208-6.375 0-3.044.819-5.368 2.457-6.973 1.185-1.162 2.673-1.743 4.466-1.743 2.235 0 3.957.936 5.163 2.806.907 1.428 1.361 3.265 1.361 5.512v.615zm-2.473-1.876c-.1-1.185-.354-2.164-.764-2.938-.73-1.405-1.854-2.108-3.37-2.108-1.472 0-2.606.691-3.403 2.075-.442.753-.753 1.743-.93 2.972h8.467z"/></g></svg>